<?xml version="1.0"?>
<svg xmlns="http://www.w3.org/2000/svg" height="512px" viewBox="0 0 448 448" width="512px"><g><path d="m224 0c-123.710938 0-224 100.289062-224 224s100.289062 224 224 224 224-100.289062 224-224c-.140625-123.652344-100.347656-223.859375-224-224zm107.238281 155.710938-135.757812 135.769531c-3.125 3.121093-8.1875 3.121093-11.3125 0l-67.878907-67.878907c-3.03125-3.140624-2.988281-8.128906.097657-11.214843 3.085937-3.085938 8.074219-3.128907 11.214843-.097657l62.222657 62.222657 130.105469-130.113281c2.007812-2.078126 4.980468-2.914063 7.777343-2.179688 2.796875.730469 4.984375 2.917969 5.714844 5.714844s-.101563 5.769531-2.183594 7.777344zm0 0" data-original="#000000" class="active-path" data-old_color="#24df73" fill="#24df73"/></g> </svg>
