<?xml version="1.0" encoding="utf-8"?>
<!-- Generator: Adobe Illustrator 16.0.0, SVG Export Plug-In . SVG Version: 6.00 Build 0)  -->
<!DOCTYPE svg PUBLIC "-//W3C//DTD SVG 1.1//EN" "http://www.w3.org/Graphics/SVG/1.1/DTD/svg11.dtd">
<svg version="1.1" id="object" xmlns="http://www.w3.org/2000/svg" xmlns:xlink="http://www.w3.org/1999/xlink" x="0px" y="0px"
	 width="1100px" height="800px" viewBox="0 0 1100 800" enable-background="new 0 0 1100 800" xml:space="preserve">
<g>
	<path opacity="0.12" d="M864.394,713.116c46.713,0.406,93.387,0.57,139.973,0.35c5.019-0.024,10.186-0.015,14.814,2.399
		c12.797,6.679,8.646,20.646-3.444,25.117c-25.216,9.325-59.813,8.372-86.54,10.611c-32.599,2.732-65.29,4.226-97.988,5.053
		c-64.493,1.631-129.011,0.621-193.515,1.264c-74.722,0.744-149.45,1.233-224.175,0.666c-72.757-0.554-150.084,4.189-221.941-8.169
		c-18-3.097-35.795-7.472-53.939-9.699c-17.148-2.105-34.441-1.136-51.587-3.395c-9.358-1.233-12.487-9.769-4.363-15.609
		c9.153-6.574,25.196-2.882,35.765-3.021c18.114-0.238,36.285-1.57,54.385-2.353c80.276-3.472,160.049-11.79,240.292-10.397
		c83.248,1.443,166.496,2.888,249.743,4.332C729.36,711.437,796.917,712.529,864.394,713.116z"/>
	<g>
		<g>
			<g>
				<g>
					<g id="XMLID_69_">
						<path id="XMLID_70_" fill="#EAC5B0" d="M535.572,615.378l0.651,39.571c-0.266,10.979,0.723,21.924,1.391,32.866
							c0.62,10.165-1.429,20.641,3.394,30.062c1.513,2.953,4.73,5.011,7.179,1.599c1.887-2.629,1.019-7.18,1.484-10.231
							c3.503-22.939,10.022-45.311,13.275-68.293C566.354,616.877,557.04,617.512,535.572,615.378z"/>
					</g>
					<polygon fill="#292949" points="537.82,711.112 535.276,717.713 547.795,728.732 559.264,729.205 562.973,723.154 
						547.548,709.742 					"/>
				</g>
				<g>
					<g id="XMLID_67_">
						<path id="XMLID_68_" fill="#EAC5B0" d="M507.54,615.764l-7.218,38.914c-2.502,17.406-8.189,34.359-10.69,51.768
							c-0.575,4.003-0.286,8.381-1.958,12.157c-1.636,3.693-4.84,3.839-7.667,1.333c-3.788-3.357-2.04-9.355-1.971-13.941
							c0.463-30.55-1.939-60.666-2.518-91.266c-0.008-0.401,0.01-0.861,0.32-1.115c0.252-0.207,0.611-0.203,0.937-0.182
							C479.747,613.63,507.384,616.604,507.54,615.764z"/>
					</g>
					<polygon fill="#292949" points="477.947,712.737 473.979,718.594 483.688,732.154 494.753,735.203 499.732,730.145 
						487.733,713.598 					"/>
				</g>
				<polygon fill="#292949" points="576.355,640.556 570.957,583.982 568.354,547.225 559.6,517.203 512.334,509.867 
					453.896,519.884 451.087,531.237 462.334,636.332 518.699,640.556 517.935,575.146 526.629,615.689 526.26,640.556 				"/>
			</g>
			<path fill="#FFFFFF" d="M466.302,406.67c-0.08,1.91-0.132,3.819-0.166,5.725c-0.684,38.806,1.455,78.105,1.701,117.232
				c20.039-3.137,40.298-4.865,60.579-5.172c4.694-0.07,26.037,3.225,29.008,0.422c4.033-3.803-0.402-3.087-0.107-8.042
				c0.383-6.412-2.698-11.662-1.535-19.26c1.368-8.929,4.089-17.761,5.656-26.688c3.142-17.901,5.033-36.022,5.647-54.188
				c0.544-16.111-0.04-32.82-6.968-47.375c-17.086-35.896-72.171-35.25-87.285,2.229
				C468.355,382.654,466.801,394.672,466.302,406.67z"/>
			<g>
				<g>
					<path fill="#292949" d="M528.382,292.841c2.355,4.128,3.491,8.883,3.7,13.63c0.056,1.263,0.142,2.721,1.162,3.466
						c1.093,0.798,0.132,2.548,0.963,1.481c0.831-1.067,3.654-4.775,3.781-6.122c0.297-3.155,0.292-6.339-0.014-9.493
						c-0.267-2.744-0.827-5.61-2.623-7.702c-1.064-1.24-2.485-2.112-3.884-2.957c-2.028-1.226-4.119-2.462-6.449-2.896
						c-4.016-0.749-6.479,0.692-2.936,3.493C524.622,287.747,526.769,290.013,528.382,292.841z"/>
					<g>
						<path fill="#EAC5B0" d="M503.29,346.698c0.027,1.943-0.372,3.958,1.343,5.466c0.824,0.724,1.938,1.015,3.022,1.187
							c2.801,0.444,5.704,0.238,8.414-0.597c1.115-0.343,2.227-0.81,3.068-1.618c0.994-0.955,1.045-1.86,1.093-3.11
							c0.056-1.465,0.352-2.954,0.543-4.439c0.42-3.248,0.608-6.523,0.702-9.796c4.812-0.826,10.472-2.382,12.116-7.422
							c0.519-1.587,0.537-3.314,0.549-5.004c0.051-6.983,0.103-13.967,0.153-20.95c0.018-2.416,0.023-4.904-0.804-7.146
							c-1.451-3.933-5.139-6.277-8.755-7.752c-9.229-3.764-19.985-3.614-28.502,1.74c-2.268,1.425-4.407,3.257-5.712,5.746
							c-2.013,3.836-1.76,8.572-1.448,12.999c0.289,4.086,0.577,8.172,0.866,12.258c0.332,4.7,1.038,10.109,4.687,12.591
							c1.938,1.318,4.442,1.56,6.112,3.265c2.915,2.977,1.525,7.423,2.387,11.031C503.244,345.649,503.282,346.171,503.29,346.698z"
							/>
					</g>
					<path fill="#292949" d="M535.833,318.579c-0.078-1.294-0.644-5.089-2.591-2.704c-0.51,0.624-0.635,1.505-0.667,2.335
						s0.006,1.685-0.255,2.467c-0.601,1.794-2.586,2.611-4.355,2.58c-0.704-0.013-1.421-0.128-2.043-0.482
						c-0.604-0.344-1.083-0.89-1.551-1.427c-1.136-1.303-2.271-2.606-3.406-3.909c-1.952-2.239-5.823-1.271-8.453-0.928
						c-3.03,0.396-6.063,1.311-8.54,3.305c-0.249,0.201-0.493,0.412-0.738,0.624c-0.597,0.515-1.197,1.025-1.891,1.363
						c-2.341,1.14-5.239-0.05-6.88-2.182c-0.752-0.977-1.454-2.234-2.622-2.398c-0.914-0.127-1.803,0.527-2.272,1.381
						c-0.469,0.855-0.594,1.875-0.658,2.866c-0.23,3.606,0.267,7.326,1.83,10.526c3.391,6.938,9.945,7.79,16.533,7.634
						c2.604-0.062,5.208-0.123,7.813-0.185c4.761-0.112,9.793-0.31,13.803-3.077c3.538-2.441,5.64-6.592,6.502-10.939
						C535.838,323.185,535.971,320.868,535.833,318.579z M518.415,328.413c-2.507,1.686-5.27,1.776-8.064,0.936
						c-1.188-0.357-0.684-2.352,0.506-1.993c2.315,0.697,4.501,0.679,6.589-0.725C518.496,325.925,519.459,327.711,518.415,328.413z
						"/>
					<path fill="#292949" d="M536.827,280.739c0.46-1.692,0.8-3.417,1.017-5.158c-1.611,0.565-3.366,0.716-5.05,0.433
						c-0.004-1.004-0.008-2.008-0.012-3.013c-0.008-0.835-11.306-1.42-12.224-1.495c-8.595-0.705-16.455-1.376-24.227,3.237
						c-6.639,3.939-10.895,9.824-11.913,17.482c-0.973,7.316,1.421,16.873,5.652,22.945c-0.024-1.948-1.145-6.542-0.686-8.394
						c0.282-1.855,0.923-3.644,1.807-5.295c1.766-3.297,4.501-6.072,7.661-8.053c5.038-3.157,10.895-4.826,16.744-5.641
						c5.359-0.747,11.891-1.435,17.186-0.016c2.545,0.682,2.967,1.321,4.508-1.248c0.272-0.453,2.427-5.742,2.216-5.745
						C538.613,280.766,537.72,280.752,536.827,280.739z"/>
				</g>
			</g>
		</g>
		<g>
			<g>
				<g>
					<g>
						<g>
							<g>
								<circle fill="#FFFFFF" cx="507.54" cy="169.103" r="109.272"/>
							</g>
						</g>
						<g opacity="0.08">
							<g>
								<path d="M551.17,68.788c13.141,15.309,22.201,34.432,25.218,55.893c8.401,59.762-33.235,115.019-92.997,123.419
									c-20.755,2.918-40.965-0.205-58.859-8.021c23.451,27.32,59.901,42.488,98.202,37.104
									c59.761-8.401,101.398-63.657,92.997-123.419C610.247,114.757,584.8,83.478,551.17,68.788z"/>
							</g>
						</g>
						<g opacity="0.2">
							<g>
								<path fill="#FFFFFF" d="M415.644,193.662c-7.799-55.485,30.857-106.788,86.342-114.587
									c32.432-4.56,63.43,6.759,85.151,28.027c-21.582-27.678-56.947-43.383-94.199-38.146
									c-55.485,7.8-94.142,59.103-86.342,114.587c3.24,23.053,13.996,43.196,29.436,58.314
									C425.468,228.311,418.207,211.895,415.644,193.662z"/>
							</g>
						</g>
					</g>
					<g>
						<g>
							<path fill="#292949" d="M464.661,197.711c5.854,22.73,27.968,37.929,51.762,34.584c23.794-3.345,40.861-24.051,40.222-47.515
								L464.661,197.711z"/>
						</g>
						<g>
							<path fill="#D67086" d="M482.877,224.119c9.391,6.667,21.24,9.906,33.546,8.177c11.775-1.655,21.898-7.567,29.048-15.956
								l-0.565-0.936C511.903,204.686,483.269,223.855,482.877,224.119z"/>
						</g>
					</g>
				</g>
				<g>
					<g>
						<path fill="#292949" d="M531.913,147.486c1.986-8.085,8.599-14.059,16.842-15.218c8.067-1.134,15.99,2.649,20.183,9.638
							c0.802,1.338,0.555,3.011-0.602,4.066c-1.156,1.057-2.846,1.152-4.108,0.231c-6.821-4.979-16.971-8.316-26.579,4.058
							c-0.542,0.699-1.306,1.125-2.12,1.239c-0.621,0.087-1.271-0.007-1.875-0.3C532.256,150.524,531.541,148.997,531.913,147.486z"
							/>
					</g>
					<g>
						<path fill="#292949" d="M438.946,160.555c1.987-8.085,8.598-14.059,16.841-15.217c8.068-1.135,15.99,2.648,20.181,9.636
							c0.804,1.337,0.558,3.009-0.598,4.066c-1.156,1.059-2.847,1.154-4.111,0.232c-6.821-4.978-16.969-8.316-26.578,4.058
							c-0.542,0.699-1.306,1.125-2.12,1.239c-0.621,0.087-1.271-0.007-1.875-0.3C439.289,163.593,438.574,162.065,438.946,160.555z"
							/>
					</g>
				</g>
			</g>
			<g>
				<circle fill="#D67086" cx="450.124" cy="194.798" r="19.078"/>
			</g>
			<g>
				<circle fill="#D67086" cx="581.911" cy="175.273" r="19.077"/>
			</g>
		</g>
		<g>
			<path fill="#EAC5B0" d="M434.083,232.731c0.162,0.266,0.327,0.543,0.403,0.834c0.713,2.718-0.542,4.562-0.6,7.361
				c-0.026,1.249,2.635,3.048,0.417,4.42c-0.818,0.507-3.001,1.466-4.757,2.529c-2.561,1.55-4.868,5.063-6.186,8.189
				c-2.36,5.638-4.021,11.527-5.227,17.513c-1.072,5.317-3.613,13.49-2.656,18.864c0.867,4.864,7.342,10.965,10.248,15.106
				c3.66,5.214,7.242,10.483,10.747,15.803c2.467,3.746,4.938,7.615,5.949,11.985c0.612,2.646,0.592,5.656-1.064,7.809
				c-1.07,1.391-2.678,2.241-4.235,3.051c-2.751,1.43-5.721,2.902-8.798,2.525c-3.79-0.464-6.641-3.569-9.046-6.534
				c-5.42-6.687-10.442-13.755-14.396-21.418c-2.794-5.415-8.055-14.989-6.819-21.163c2.817-14.08,6.862-27.83,11.206-41.57
				c1.194-3.776,4.221-6.444,5.293-9.945c0.685-2.235-0.386-4.48-0.207-6.731c0.177-2.227,0.978-5.106,1.963-7.109
				c1.943-3.95,6.42-4.748,10.262-5.83c0.957-0.27,1.603-0.454,2.513-0.258c1.481,0.319,2.436,1.437,3.423,2.512
				C433.1,231.311,433.636,231.997,434.083,232.731z"/>
		</g>
		<g>
			<g>
				<path fill="#EAC5B0" d="M587.952,227.814c-0.162,0.266-0.327,0.543-0.403,0.834c-0.713,2.717,0.542,4.561,0.6,7.361
					c0.026,1.249-2.635,3.048-0.417,4.42c0.819,0.506,3.001,1.465,4.757,2.528c2.561,1.55,4.868,5.063,6.186,8.189
					c2.36,5.638,4.021,11.527,5.229,17.513c1.071,5.317,3.612,13.49,2.655,18.863c-0.866,4.864-7.341,10.966-10.247,15.106
					c-3.66,5.215-7.242,10.483-10.747,15.803c-2.467,3.746-4.938,7.615-5.949,11.985c-0.612,2.646-0.591,5.656,1.065,7.809
					c1.069,1.391,2.678,2.242,4.234,3.051c2.752,1.43,5.721,2.902,8.798,2.525c3.79-0.464,6.642-3.568,9.046-6.534
					c5.42-6.686,10.442-13.755,14.396-21.417c2.795-5.416,8.055-14.99,6.819-21.163c-2.817-14.079-6.862-27.831-11.206-41.57
					c-1.193-3.775-4.221-6.444-5.293-9.945c-0.685-2.234,0.386-4.48,0.207-6.731c-0.178-2.227-0.979-5.106-1.963-7.109
					c-1.943-3.95-6.42-4.749-10.263-5.831c-0.957-0.27-1.603-0.455-2.514-0.258c-1.481,0.318-2.436,1.437-3.423,2.512
					C588.936,226.394,588.399,227.08,587.952,227.814z"/>
			</g>
			<g>
				<path fill="#5D66D3" d="M505.673,347.267l-0.394-4.905c-5.665,1.325-12.682,1.96-18.776,3.52
					c-7.814-2.735-16.567-2.905-23.739-7.048c-5.051-2.917-8.844-7.547-12.521-12.075c-4.678-5.761-6.808-11.804-13.656-9.524
					c-5.113,1.703-11.886,10.811-15.961,14.5c-1.978,1.791-3.956,3.581-5.935,5.372c-0.462,0.418-0.954,0.891-1.036,1.509
					c-0.06,0.451,0.112,0.896,0.284,1.317c5.396,12.843,13.421,25.764,24.168,34.793c6.703,5.631,11.842,11.973,16.726,18.818
					c-2.458,17.64-0.021,36.472-0.004,54.012c0.007,7.233-4.881,84.743-1.167,84.931c12.876,0.65,26.395-1.542,39.235-2.699
					c5.871-0.529,12.76,0.759,14.062-5.785c0.933-4.688,0.292-10.273,0.427-15.042c0.487-17.155,0.974-34.312,1.461-51.467
					c0.128-4.511,1.712-71.345,2.025-71.345l-14.961-27.265L505.673,347.267z"/>
				<path fill="#5D66D3" d="M608.381,333.697c-0.082-0.618-0.573-1.09-1.035-1.509c-1.979-1.791-3.957-3.581-5.936-5.372
					c-4.074-3.688-10.848-12.797-15.961-14.5c-6.849-2.28-8.979,3.763-13.656,9.524c-3.676,4.527-7.47,9.157-12.521,12.075
					c-7.688,4.441-17.193,4.314-25.41,7.677c-0.479,0.196-0.954,0.425-1.411,0.678c-1.517-0.312-3.143-0.663-4.914-1.097
					c-3.433-0.842-10.825-3.517-8.969,3.276c1.063,3.888,7.266,8.745,9.89,11.867l-14.96,27.265
					c0.782,27.542,1.563,55.085,2.345,82.627c0.36,12.693,0.721,25.386,1.081,38.079c0.125,4.408,0.234,8.816,0.375,13.223
					c0.063,1.979-0.483,5.309,0.645,6.923c2.45,3.505,11.403,2.412,15.309,2.719c6.091,0.479,12.271,0.978,18.007,3.08
					c3.819,1.4,7.439,3.509,11.468,4.074c0.905,0.127,1.918,0.146,2.628-0.429c0.795-0.643,0.931-1.782,1.006-2.802
					c1.4-18.908,1.43-38.401,2.479-57.513c0.857-15.641,3.047-32.167,1.689-47.827c-0.022-0.261-0.048-0.522-0.096-0.781
					c-2.596-14.091-0.896-26.381-1.754-38.375c4.453-6.065,9.217-11.707,15.247-16.774c10.747-9.029,18.772-21.951,24.169-34.793
					C608.27,334.593,608.441,334.147,608.381,333.697z"/>
			</g>
		</g>
	</g>
	<g>
		<g>
			<g>
				<path fill="#EAC5B0" d="M798.15,308.779c0.328,0.015,0.668,0.035,0.969,0.139c2.799,0.98,3.673,3.167,6.09,4.871
					c1.077,0.76,4.223-0.507,4.115,2.244c-0.04,1.016-0.489,3.492-0.595,5.657c-0.154,3.156,1.558,7.25,3.518,10.249
					c7.698,11.784,18.39,21.146,29.257,30.076c0.619,0.509,1.274,1.031,2.059,1.197c1.404,0.298,2.752-0.604,3.921-1.438
					c5.422-3.864,11.204-7.223,17.246-10.019c5.392-2.495,11.148-4.571,17.089-4.498c5.94,0.073,12.124,2.643,15.243,7.698
					c2.336,3.786,2.688,8.724,0.916,12.804c-4.397,10.118-20.514,9.927-29.821,11.597c-8.807,1.58-17.723,2.543-26.663,2.877
					c-1.104,0.041-2.243,0.067-3.274-0.329c-1.099-0.422-1.963-1.28-2.791-2.117c-10.662-10.777-20.312-22.435-29.774-34.348
					c-2.601-3.273-3.149-7.499-5.582-10.504c-1.552-1.918-4.149-2.307-6.014-3.792c-1.845-1.47-3.893-3.87-5.064-5.915
					c-2.311-4.033-0.367-8.423,0.954-12.425c0.329-0.997,0.548-1.671,1.257-2.352c1.153-1.108,2.696-1.284,4.22-1.514
					C796.326,308.801,797.243,308.736,798.15,308.779z"/>
			</g>
			<g>
				<path fill="#3B3387" d="M872.52,386.317c-9.663,1.454-19.579,1.994-28.551,1.274c-2.271-0.183-4.604-0.474-6.594-1.584
					c-1.648-0.92-2.95-2.341-4.222-3.738c-7.399-8.127-14.798-16.255-22.197-24.382c-1.056-1.16-2.19-2.655-1.688-4.141
					c0.303-0.896,1.13-1.493,1.91-2.029c3.57-2.456,7.141-4.912,10.711-7.367c0.647-0.446,1.357-0.91,2.143-0.878
					c0.728,0.03,1.364,0.482,1.913,0.961c3.485,3.036,5.317,7.729,9.082,10.411c3.445,2.455,8.04,2.815,12.176,1.926
					c17.334-3.73,32.921-17.813,47.973-26.604c7.97-4.654,16.262-9.416,25.446-10.315c19.611-1.92,31.776,20.99,17.412,35.455
					c-12.191,12.276-27.893,21.156-44.373,26.242C887.115,383.566,879.891,385.208,872.52,386.317z"/>
			</g>
		</g>
		<g>
			<g>
				<g>
					<g>
						<g>
							<g>
								<polygon fill="#EDCEAF" points="916.899,681.614 919.983,703.796 906.838,705.612 903.418,681.021 								"/>
							</g>
						</g>
						<g>
							<g>
								<path fill="#292949" d="M907.575,701.985l11.924,2.358l3.872,3.25l0.508,8.781l-30.657,6.263l0,0
									c-3.091-3.483-2.032-8.86,2.146-10.903l1.379-0.674L907.575,701.985z"/>
							</g>
						</g>
					</g>
				</g>
				<g>
					<g>
						<g>
							<g>
								<g>
									<g>
										<path fill="#EDCEAF" d="M1012.113,594.021c5.552-1.837,10.948-5.474,16.538-6.776c0.284,4.353,0.703,8.69,1.065,13.036
											c-6.756,3.176-13.727,5.695-21.096,7.027C1009.789,602.905,1011.293,598.504,1012.113,594.021z"/>
									</g>
								</g>
								<g>
									<g>
										<path fill="#292949" d="M1030.104,600.036c-0.392-0.554-0.436-0.57-0.765-1.859c-0.818-3.194-2.958-12.048,0.06-14.762
											c0.49-0.44,0.719-0.006,1.157,0.202c7.356,3.493,12.663,7.517,18.521,13.437c2.507,2.533,4.925,5.711,5.093,9.396
											c0.073,1.616-0.593,2.87-1.205,4.153c-0.901,1.894-1.957,3.548-3.148,5.181c-0.436,0.597-0.796,1.262-1.646,1.204
											c-1.705-0.114-2.528-2.068-2.858-3.676c-0.331-1.605-0.464-3.561-1.532-4.912c-0.479-0.605-1.182-0.979-1.761-1.311
											C1037.716,604.618,1033.173,604.376,1030.104,600.036z"/>
									</g>
								</g>
							</g>
						</g>
						<g>
							<path fill="#292949" d="M916.508,582.338c10.726,19.056,26.504,27.361,45.493,33.254c21.729,6.744,40.446,3.061,59.806-7.762
								c0.333-6.461-0.287-12.884,0.193-18.949c-21.526,3.415-31.925,2.66-46.455-16.574c-21.002-27.798-0.147-68.721-5.902-102.301
								c-0.661-3.859-1.715-7.703-3.677-11.092c-22.805-39.381-63.854-13.064-68.924,22.995
								C892.505,514.178,900.512,553.918,916.508,582.338z"/>
						</g>
					</g>
				</g>
				<path fill="#292949" d="M956.269,466.935c-1.459-11.989-4.362-23.36-7.701-31.891c-18.61,1.313-39.248,5.962-57.069,11.95
					c-17.418,5.853-28.078,11.131-25.792,30.524c4.206,35.686-5.946,67.796-7.693,102.817c-1.015,20.353,7.247,37.415,16.241,55.027
					c10.291,20.152,19.497,40.859,27.563,62.002c6.188-0.809,12.376-1.617,18.563-2.426c2.685-28.258-3.396-56.506-6.386-84.734
					c-2.078-19.615-2.569-39.895,2.334-59.152c5.391-21.169,17.778-14.555,29.386-27.889
					C956.999,510.202,958.788,487.645,956.269,466.935z"/>
			</g>
			<g>
				<path fill="#3B3387" d="M931.429,328.885c2.13,1.496,4.026,3.332,5.9,5.151c1.679,1.629,3.358,3.259,5.037,4.889
					c5.815,5.646,8.964,14.261,11.692,21.695c14.362,39.122,21.424,93.39,15.266,135.265c-30.642,4.107-66.618-1.973-97.515-4.721
					c-3.005-0.267-6.417-0.776-8.089-3.287c-1.013-1.521-1.13-3.449-1.216-5.275c-1.237-26.341,2.995-54.913,6.993-81.125
					c1.688-11.062,3.891-22.055,6.871-32.844c3.154-11.421,6.736-23.761,14.959-32.676c8.798-9.539,26.253-14.867,38.139-8.304
					C930.146,328.028,930.797,328.441,931.429,328.885z"/>
			</g>
			<g>
				<g>
					<g>
						<path fill="#FEE0D4" d="M928.334,334.579c0.388-3.608,0.774-7.217,1.162-10.826c0.73-0.393,1.422-0.821,2.061-1.271
							c12.445-8.798,31.896-53.804-2.771-62.04c-31.479-7.478-27.852,35.17-20.951,52.699c1.182,3,2.703,5.815,4.874,8.216
							c1.485,1.643,1.785,1.303,1.677,3.292c-0.105,1.925-1.912,4.184-2.25,6.225c-0.362,2.177-0.075,4.557,1.262,6.313
							c0.819,1.076,1.978,1.852,3.201,2.427c1.944,0.915,4.176,1.366,6.266,0.867C925.349,339.887,928.057,337.163,928.334,334.579z
							"/>
					</g>
				</g>
				<g>
					<g>
						<g>
							<g>
								<path fill="#1A3151" d="M899.78,297.345c2.169,5.593,5.087,10.896,8.651,15.722c-0.675-10.507,0.104-21.105,2.304-31.401
									c0.168-0.785,0.326-1.673-0.127-2.336c-0.423-0.62-1.233-0.82-1.973-0.944C895.423,276.175,895.999,287.595,899.78,297.345z
									"/>
							</g>
						</g>
					</g>
					<g>
						<g>
							<g>
								<g>
									<path fill="#1A3151" d="M934.889,311.571c2.238,2.853,6.797,1.842,9.957,0.063c12.979-7.309,20.045-23.764,16.409-38.208
										c-3.042-12.087-18.855-20.513-21.253-5.248c-0.851,5.412,2.764,12.686,2.297,18.669
										C941.631,295.396,938.053,303.709,934.889,311.571z"/>
								</g>
							</g>
						</g>
						<g>
							<g>
								<g>
									<path fill="#1A3151" d="M897.72,250.673c-1.462,0.659-2.948,1.352-4.516,2.051c-3.245,1.449-5.619,1.998-9.118,0.222
										c-1.001-0.509-7.822-6.375-6.312-7.731c-10.018,8.99-0.865,20.993,3.456,29.59c2.912,5.795,3.848,14.125,9.949,17.715
										c6.711,3.948,10.924-1.642,16.723-4.332c5.113-2.372,10.697-3.789,15.914-5.932c8.655-3.556,21.496-9.69,18.029-21.25
										c-4.05-13.501-18.051-16.254-30.436-14.625C906.118,247.078,902.027,248.731,897.72,250.673z"/>
								</g>
							</g>
						</g>
					</g>
				</g>
			</g>
		</g>
		<g>
			<g>
				<g>
					<path fill="#EAC5B0" d="M893.41,346.766c0.323-0.065,0.656-0.13,0.974-0.102c2.954,0.263,4.337,2.17,7.098,3.229
						c1.231,0.473,3.97-1.527,4.54,1.167c0.21,0.994,0.382,3.506,0.81,5.63c0.624,3.098,3.288,6.646,5.923,9.074
						c4.985,4.594,23.502,11.342,22.073,19.953c-3.357,20.231-30.152-11.823-33.144-14.064c-1.975-1.479-4.588-1.219-6.76-2.202
						c-2.149-0.973-4.723-2.798-6.359-4.493c-3.229-3.344-2.42-8.076-2.121-12.28c0.075-1.047,0.122-1.754,0.643-2.589
						c0.847-1.357,2.299-1.905,3.72-2.501C891.647,347.234,892.521,346.946,893.41,346.766z"/>
				</g>
			</g>
			<path fill="#3B3387" d="M973.6,410.555c-2.602,8.349-18.912,2.899-24.626,0.396c-12.002-5.257-23.345-11.63-33.707-19.689
				c-0.645-0.502-1.334-1.09-1.445-1.899c-0.11-0.799,0.38-1.544,0.848-2.202c2.917-4.104,5.833-8.208,8.749-12.313
				c0.628-0.883,1.3-1.804,2.283-2.26c3.708-1.721,8.795,3.144,12.567,3.531c1.049-9.259-4.501-17.114-7.235-25.532
				c-3.745-11.53,9.434-14.608,16.556-8.688c8.717,7.245,14.587,18.045,18.332,28.563c4.06,11.4,5.964,23.435,7.848,35.389
				C974.069,407.763,973.986,409.312,973.6,410.555z"/>
		</g>
	</g>
	<g>
		<path fill="#EAC5B0" d="M643.494,307.766c-1.654-1.681-3.251-3.424-4.82-4.875c-0.265-2.261-0.53-4.521-0.795-6.781
			c-0.041-0.351-0.077-0.729,0.098-1.035c0.153-0.269,0.439-0.43,0.711-0.576c1.203-0.652,2.406-1.305,3.61-1.957
			c0.239-0.13,0.489-0.263,0.761-0.279c0.594-0.035,1.061,0.475,1.431,0.94c1.278,1.609,5.835,7.013,5.956,2.634
			c0.02-0.671,0.621-1.21,1.27-1.383s1.335-0.063,1.996,0.049c0.477,0.081,1.037,0.228,1.196,0.685
			c0.072,0.206,0.041,0.432,0.009,0.647c-0.343,2.316-0.804,4.262-0.334,6.608c0.457,2.581,0.914,5.163,1.371,7.743
			c0.023,0.132-3.388,1.868-3.697,2.06c-1.799,1.112-1.057,1.604-3.081,0.354C647.188,311.374,645.307,309.607,643.494,307.766z"/>
		<polygon fill="#D67086" points="728.854,353.587 684.203,359.17 661.635,309.449 649.858,316.439 661.941,389.623 
			677.557,406.002 708.271,403.471 		"/>
	</g>
	<g>
		<g>
			<g>
				<polygon fill="#EAC5B0" points="762.068,507.543 745.688,613.029 751.504,689.234 739.574,692.959 728.896,622.543 
					706.104,493.867 				"/>
			</g>
			<polygon fill="#292949" points="739.6,695.107 738.283,703.002 741.274,718.008 751.125,717.173 752.979,694.946 
				751.529,691.383 			"/>
		</g>
		<g>
			<polygon fill="#EAC5B0" points="665.542,504.406 670.809,593.875 693.084,718.951 705.156,718.807 699.789,602.838 
				715.449,495.928 			"/>
			<polygon fill="#292949" points="693.283,716.813 677.852,726.938 679.777,734.505 708.029,728.477 705.731,717.547 			"/>
		</g>
		<polygon fill="#292949" points="662.881,517.816 663.385,621.667 677.58,691.689 709.924,687.003 708.983,606.077 
			715.696,517.181 712.371,503.719 665.59,508.472 		"/>
		<polygon fill="#292949" points="720.27,607.605 730.282,681.259 758.409,677.34 751.959,607.224 762.396,517.566 756.269,493.287 
			709.009,500.409 		"/>
		<path fill="#D67086" d="M775.956,387.259c-3.107-10.417-8.583-28.169-17.766-33.184c-0.192-0.105-0.386-0.208-0.58-0.311
			c-1.822-0.957-3.776-1.813-5.819-2.55c-3.663-2.305-8.931-3.298-14.134-2.953c-4.775-0.315-9.522,0.064-13.803,1.325
			c-2.012,0.593-3.911,1.581-5.798,2.564c-5.504,2.868-9.73,4.104-13.15,9.739c-2.971,4.893-4.75,10.604-7.002,15.884
			c-18.832,44.144-34.132,103.072-46.35,149.725c5.771-0.555,11.558-1.497,17.322-2.414c26.507,2.988,56.775,10.991,80.153,18.935
			c7.007,4.167,13.906,8.556,20.749,13.014c-1.752-1.142,6.593-38.064,7.251-42.225c2.382-15.061,4.464-30.176,5.883-45.354
			C785.549,441.268,783.977,414.149,775.956,387.259z"/>
		<g>
			<path fill="#EAC5B0" d="M764.754,314.923c-4.871-18.509-30.564-26.38-37.833-5.637c-2.185,6.233-3.667,12.896-2.802,19.454
				c0.865,6.559,4.404,13.014,10.199,16.024c0.033,0.018,0.067,0.029,0.1,0.047c0.997,0.513-4.595,11.148-4.99,11.999
				c-0.619,1.333-1.244,2.68-1.548,4.118c-0.676,3.196,0.287,6.497,1.422,9.561c1.038,2.801,2.229,5.546,3.565,8.219
				c0.117,0.232,0.242,0.474,0.455,0.622c0.513,0.357,1.207,0.014,1.724-0.338c4.141-2.821,7.798-6.35,10.767-10.386
				c0.679-0.922,1.329-1.886,1.705-2.968c0.428-1.233,0.479-2.563,0.48-3.868c0.004-3.64-3.085-12.621-1.25-15.471
				c0.697-1.083,4.115-1.876,5.298-2.604c1.957-1.204,3.721-2.725,5.288-4.399C763.203,333.032,767.009,323.491,764.754,314.923z"/>
			<g>
				<path fill="#292949" d="M727.213,314.99c-2.912,4.698-2.742,10.445-2.004,15.738c0.723,5.175,0.15,10.233,1.352,15.358
					c-0.55,0.801-1.778,0.271-2.545-0.318c-4.497-3.448-8.947-6.961-13.349-10.535c-0.443-0.359-0.898-0.735-1.157-1.247
					c-0.328-0.649-0.295-1.419-0.242-2.147c1.046-14.384,6.666-24.888,14.723-36.235c3.912-5.51,14.363-11.6,20.294-5.024
					c1.351,1.497,1.844,3.581,2.194,5.581c0.209,1.194,0.383,2.43,0.112,3.611c-1.081,4.711-5.49,4.449-8.943,5.957
					C733.39,307.588,729.671,311.025,727.213,314.99z"/>
				<path fill="#292949" d="M759.998,324.468c0,4.144-0.969,8.85-2.211,12.769c-0.43,1.357-3.031,4.513-3.112,5.432
					c-0.235,2.662,5.238,8.915,6.664,11.241c8.562-4.751,17.122-9.501,25.684-14.252c0.655-0.364,1.343-0.758,1.724-1.411
					c0.346-0.593,0.388-1.313,0.412-2.003c0.481-13.548-3.005-25.727-8.168-37.983c-5.159-12.25-16.734-22.208-30.369-21.357
					c-11.017,0.688-18.723,8.813-14.697,20.165c3.04,8.569,13.7,10.387,19.503,16.242
					C759.069,316.985,760.111,320.635,759.998,324.468z"/>
			</g>
		</g>
	</g>
	<g>
		<g>
			<path fill="#EAC5B0" d="M237.943,265.433c-0.166,0.242-0.336,0.494-0.423,0.764c-0.812,2.518,0.272,4.318,0.181,6.954
				c-0.041,1.175-2.637,2.729-0.622,4.135c0.744,0.519,2.747,1.534,4.342,2.625c2.327,1.591,4.314,5.015,5.391,8.023
				c4.23,11.823,5.125,24.47,5.618,37.007c0.028,0.714,0.046,1.461-0.258,2.108c-0.545,1.159-1.913,1.63-3.135,2.012
				c-5.669,1.773-11.172,4.074-16.416,6.863c-4.679,2.489-9.258,5.463-12.407,9.726s-4.654,10.043-2.74,14.985
				c1.433,3.701,4.753,6.612,8.609,7.55c9.563,2.326,18.112-9.235,24.314-14.952c5.869-5.409,11.358-11.229,16.413-17.406
				c0.624-0.763,1.256-1.558,1.53-2.505c0.292-1.009,0.148-2.086-0.001-3.125c-1.917-13.388-5.005-26.529-8.376-39.677
				c-0.926-3.613-3.634-6.28-4.46-9.628c-0.527-2.137,0.596-4.193,0.545-6.319c-0.051-2.104-0.654-4.853-1.476-6.788
				c-1.623-3.816-5.791-4.8-9.348-6.018c-0.886-0.303-1.483-0.51-2.35-0.373c-1.409,0.223-2.365,1.225-3.35,2.184
				C238.941,264.148,238.401,264.766,237.943,265.433z"/>
		</g>
		<g>
			<path fill="#D67086" d="M246.598,353.563c-3.352-7.218-6.703-14.437-10.054-21.655c0.215,0.463-33.684,13.204-35.676,14.031
				c-7.603,3.158-15.457,6.488-21.045,12.533c-11.933,12.908-2.199,33.903,15.825,31.484c19.566-2.626,39.775-12.943,53.74-26.828
				c0.303-0.302,0.616-0.625,0.729-1.038c0.156-0.566-0.097-1.156-0.344-1.689C248.714,358.122,247.655,355.842,246.598,353.563z"/>
		</g>
	</g>
	<g>
		<g>
			<g>
				<g>
					<path fill="#292949" d="M75.286,560.757c-0.448,2.724-0.746,5.459-0.973,7.973c-0.388,4.312,0.299,9.23-0.792,13.433
						c-0.432,1.66-1.017,3.273-1.271,4.985c-0.254,1.711-0.135,3.596,0.731,4.996c1.063,1.718,2.964,2.322,4.727,2.718
						c1.632,0.366,3.319,0.651,4.945,0.248c3.28-0.814,5.698-4.346,6.699-8.146c1.197-4.548,0.594-9.027,0.429-13.633
						c0-7.261-1.942-13.452-1.641-20.768c0.051-1.233,0.076-2.563-0.615-3.586c-0.729-1.08-2.121-1.556-3.424-1.519
						c-2.596,0.073-5.102,0.798-6.145,3.274C76.7,553.718,75.867,557.228,75.286,560.757z"/>
				</g>
				<path fill="#EAC5B0" d="M82.069,555.005c-1.412,1.101-2.414,2.63-3.39,4.13c-0.659,1.014-1.326,2.34-0.661,3.348
					c0.253,0.385,0.66,0.637,1.054,0.875c1.647,1,3.294,2,4.942,3c0.335,0.204,0.705,0.416,1.094,0.363
					c0.321-0.043,0.589-0.258,0.836-0.468c1.59-1.346,3.103-2.783,4.528-4.303C96.907,555.091,87.843,550.502,82.069,555.005z"/>
			</g>
			<path fill="#353A85" d="M195.685,493.954c-0.419-1.595-1.785-2.728-3.211-3.695c-14.68-9.96-30.688-16.749-48.007-20.598
				c-1.459-0.324-10.753,28.563-11.647,31.366c-3.471,10.879-6.426,21.918-8.958,33.052c-2.773,12.2-5.65,24.376-8.589,36.537
				c-5.654-5.541-11.717-10.663-18.132-15.301c-1.104-0.799-2.296-1.611-3.656-1.696c-1.653-0.104-3.16,0.886-4.474,1.895
				c-2.288,1.756-4.429,3.704-6.393,5.816c-0.657,0.706-1.321,1.486-1.476,2.438c-0.155,0.948,0.224,1.894,0.595,2.779
				c6.374,15.201,16.469,39.646,24.565,54.027c3.916,6.955,11.422,9.337,19.041,8.74c1.951-0.152,3.299-0.697,4.998-1.298
				c2.007-0.708,4.189-0.7,6.216-1.399c1.328-0.459,2.37-1.49,3.309-2.535c8.159-9.076,13.716-21.809,18.638-32.865
				c5.344-12.002,9.695-24.422,13.623-36.952c0.29-0.925,0.585-1.842,0.885-2.753c6.177-18.737,14.518-34.863,21.98-53.256
				C195.556,496.867,196.104,495.549,195.685,493.954z"/>
		</g>
		<g>
			<g>
				<path fill="#EAC5B0" d="M172.594,707.823c2.66,1.026,5.442,0.847,8.167,1.37c2.771-9.338,4.542-18.567,5.397-28.373
					c-5.509,3.27-8.134-0.446-10.654,8.137C174.688,691.734,174.437,703.783,172.594,707.823z"/>
				<path fill="#292949" d="M183.546,706.383c0.006,5.28,4.163,10.967,6.463,15.716c0.271,0.559,0.547,1.14,0.558,1.76
					c0.017,0.922-0.547,1.741-1.087,2.489c-0.75,1.038-1.564,2.128-2.757,2.595c-1.171,0.458-2.487,0.229-3.716-0.041
					c-2.057-0.451-4.092-0.997-6.098-1.634c-0.5-0.159-1.01-0.33-1.418-0.66c-0.482-0.391-0.773-0.965-1.049-1.521
					c-1.419-2.855-2.625-4.881-2.549-8.063c0.08-3.286,0.494-6.689-0.106-9.945c-0.297-1.58-0.691-3.6,0.662-4.467
					c1.046-0.67,2.961,0.254,4.1,0.439c2.01,0.328,3.867,0.203,5.717,1.259c0.377,0.214,0.744,0.474,0.977,0.84
					C183.478,705.521,183.545,705.942,183.546,706.383z"/>
			</g>
			<path fill="#353A85" d="M169.854,538.884c1.174,23.448,3.682,46.808,1.907,70.417c-2.193,29.167-0.329,58.856-3.624,87.745
				c3.325,1.155,6.737,2.062,10.197,2.707c3.968,0.74,10.363,1.6,13.045-2.148c1.371-1.916,1.705-5.622,2.288-7.874
				c1.869-7.214,3.572-14.471,5.26-21.728c4.774-20.534,10.09-41.169,12.563-62.107c2.601-22.027,5.388-44.075,8.455-65.954
				c1.585-11.307,2.74-22.676,3.356-34.078c0.159-2.938,1.723-33.244,0.243-33.459c-17.558-2.549-34.932-1.884-52.191,2.218
				c-1.678,0.398-3.356,0.974-4.314,2.315s-0.913,2.769-0.879,4.268c0.324,14.294,2.35,28.236,2.977,42.569
				C169.355,528.762,169.598,533.755,169.854,538.884z"/>
		</g>
	</g>
	<path fill="#D67086" d="M159.994,350.717c-0.286,0.096-0.569,0.198-0.852,0.305c-4.713,1.789-8.723,5.008-12.645,8.176
		c-5.891,4.759-8.792,6.845-11.067,13.892c-2.122,6.572-3.45,13.513-4.75,20.285c-6.671,34.771-7.96,69.396-12.748,104.427
		c-1.304,9.536-2.31,20.746,4.742,27.295c12.513-9.738,28.242-10.3,43.418-10.313c10.657-0.01,21.077-3.462,31.761-2.271
		c10.21,1.137,19.127-1.415,29.488-0.741c2.498,0.163,5.681,0.135,6.666-2.166c-3.585-10.748-3.524-22.307-4.335-33.608
		c-2.099-29.232-11.783-57.284-15.691-86.319c-1.329-9.869-2.037-26.25-9.68-33.721c-8.306-8.118-27.251-8.283-37.925-6.695
		C164.215,349.581,162.062,350.017,159.994,350.717z"/>
	<g>
		<g>
			<g>
				<g>
					<path fill="#EAC5B0" d="M167.92,350.226c0.175,0.341,0.41,0.668,0.725,0.979c1.241,1.224,2.959,1.917,4.665,2.162
						c2.249,0.322,4.534-0.051,6.765-0.477c3.014-0.575,2.907-2.34,3.344-5.076c0.239-1.495,0.388-3.001,0.5-4.51
						c0.063-0.827-0.258-3.79,0.27-4.369c0.357-0.394,1.814-0.261,2.453-0.594c1.011-0.529,1.857-1.501,2.465-2.447
						c0.979-1.524,1.519-3.283,2.047-5.017c0.918-3.016,1.837-6.032,2.756-9.048c0.939-3.081,1.883-6.188,2.185-9.396
						c0.455-4.835-0.327-11.659-3.976-15.194c-3.329-3.224-8.185-4.354-12.639-4.922c-5.897-0.753-12.01,0.326-17.104,3.456
						c-2.057,1.264-4.007,2.903-5.221,5.157c-1.873,3.475-1.73,7.813-1.529,11.868c0.186,3.743,0.372,7.486,0.557,11.23
						c0.214,4.305,0.75,9.267,3.976,11.602c1.712,1.239,3.952,1.504,5.418,3.094c1.836,1.991,1.717,4.979,1.794,7.504
						C167.417,347.669,167.309,349.035,167.92,350.226z"/>
				</g>
				<path fill="#292949" d="M186.588,301.834c0.203,0.352,0.373,0.715,0.504,1.094c0.688,1.985,0.223,4.226,0.895,6.215
					c1.064,3.156,4.746,5.052,5.301,8.335c0.454,2.685-1.381,5.237-1.536,7.957c-0.169,2.97,1.733,5.782,1.438,8.713
					c-0.256,2.547-1.872,6.126-3.393,8.167c0.471-0.632,4.734-0.407,5.841-1.083c1.694-1.035,1.888-1.687,2.392-3.453
					c0.501-1.753,0.113-3.481,0.893-5.277c0.957-2.204,2.924-3.821,3.613-6.171c0.94-3.207-0.766-6.589-0.633-9.928
					c0.202-5.054,4.569-9.814,2.984-14.618c-0.93-2.817-3.666-4.618-5.205-7.155c-1.168-1.927-1.6-4.197-2.41-6.299
					c-0.811-2.102-2.204-4.206-4.365-4.843c-1.201-0.354-2.492-0.209-3.722-0.438c-2.127-0.396-3.895-1.864-5.944-2.558
					c-2.932-0.992-8.104,1.973-9.815,4.458c-1.699,2.467-0.842,4.563,0.895,6.744C177.212,295.327,184.201,297.704,186.588,301.834z
					"/>
			</g>
			<path fill="#292949" d="M147.103,286.907c-1.757,1.29-3.926,2.22-5.531,3.727c-3.128,2.937-3.723,7.634-3.836,11.923
				c-0.101,3.819-1.771,7.213-1.357,11.193c0.277,2.673,1.414,5.376,3.589,6.955c2.709,1.965,6.963,2.288,8.171,5.409
				c1.313,3.391-2.2,7.661-0.068,10.606c1.177,1.625,3.481,1.863,5.165,2.955c1.877,1.218,2.842,3.394,3.989,5.315
				c1.146,1.922,2.868,3.847,5.105,3.895c0.091-3.403,0.191-6.1-1.262-9.212c-0.847-1.813-3.34-5.157-1.425-7.121
				c1.208-1.632,4.059-2.162,4.132-4.191c0.035-0.952-0.63-1.764-1.155-2.56c-2.031-3.081-2.237-7.187-0.86-10.61
				c1.376-3.423,4.213-6.158,7.534-7.767c3.892-1.885,3.266-2.835,4.396-6.562c1.041-3.429,2.986-4.233,6.074-5.483
				c2.772-1.122,3.663-1.821,4.685-4.416c0.749-1.898,1.67-4.171,0.585-6.291c-0.863-1.684-2.416-2.888-3.921-4.035
				c-3.142-2.396-6.674-4.916-10.615-4.631c-2.189,0.158-4.249,1.186-6.44,1.311c-1.461,0.083-2.915-0.241-4.378-0.29
				c-2.494-0.083-5.125,0.675-7.145,2.16c-2.038,1.498-1.98,3.066-3.112,5.192C148.869,285.421,148.045,286.216,147.103,286.907z"/>
			<path fill="#292949" d="M155.929,272.915c0.384-2.371,0.138-5.461-2.127-6.262c-1.241-0.438-2.631,0.042-3.92-0.22
				c-2.748-0.559-3.684-3.887-5.125-6.292c-0.216-0.36-0.473-0.725-0.856-0.896c-0.548-0.245-1.177-0.027-1.773,0.045
				c-2.735,0.334-4.813-2.365-7.388-3.344c-3.188-1.211-7.199,0.782-8.159,4.054c-0.395,1.345-0.326,2.789-0.696,4.14
				c-1.5,5.475-9.518,7.804-9.721,13.478c-0.137,3.833,3.615,7.507,2.156,11.055c-0.933,2.269-3.852,3.815-3.518,6.246
				c0.215,1.563,1.88,2.628,3.458,2.605c1.578-0.021,3.028-0.888,4.216-1.926c1.887-1.647,3.309-3.762,5.106-5.507
				c1.797-1.745,4.195-3.159,6.68-2.849c2.407,0.3,4.586,2.175,6.979,1.774c1.914-0.321,3.335-2.028,5.215-2.51
				c1.759-0.45,3.588,0.241,5.4,0.35c1.812,0.109,4.038-0.833,4.086-2.649c0.012-0.439-0.111-0.894,0.027-1.312
				c0.387-1.17,2.385-1.103,2.765-2.275c-0.946-1.459-2.28-0.937-2.958-2.841C155.25,276.307,155.688,274.404,155.929,272.915z"/>
		</g>
	</g>
	<g>
		<g>
			<path fill="#EAC5B0" d="M156.799,487.583c0.062-0.287,0.123-0.584,0.101-0.867c-0.205-2.638-1.892-3.891-2.809-6.364
				c-0.409-1.103,1.402-3.526-0.996-4.062c-0.885-0.197-3.123-0.376-5.014-0.778c-2.757-0.588-5.896-3-8.035-5.374
				c-8.404-9.33-14.036-20.688-19.255-32.099c-0.298-0.65-0.598-1.334-0.563-2.049c0.064-1.279,1.15-2.234,2.136-3.053
				c4.57-3.793,8.788-8.012,12.579-12.584c3.383-4.08,6.488-8.57,7.781-13.71c1.294-5.14,0.49-11.059-3.158-14.903
				c-2.731-2.879-6.909-4.311-10.833-3.714c-9.729,1.481-13.245,15.423-16.811,23.068c-3.374,7.233-6.241,14.703-8.57,22.337
				c-0.287,0.942-0.57,1.918-0.464,2.898c0.113,1.043,0.655,1.985,1.188,2.891c6.859,11.655,14.708,22.639,22.821,33.521
				c2.229,2.989,5.747,4.428,7.783,7.212c1.3,1.776,1.042,4.104,1.897,6.053c0.846,1.926,2.449,4.24,3.944,5.717
				c2.95,2.914,7.179,2.24,10.933,2.016c0.935-0.057,1.566-0.092,2.316-0.547c1.219-0.742,1.723-2.031,2.269-3.293
				C156.363,489.15,156.628,488.375,156.799,487.583z"/>
		</g>
		<g>
			<path fill="#D67086" d="M115.314,409.348c5.842,5.404,11.684,10.809,17.526,16.212c-0.375-0.347,26.144-25.01,27.672-26.532
				c5.833-5.81,11.833-11.874,14.706-19.588c6.135-16.473-10.845-32.196-26.599-23.111c-17.102,9.861-31.876,27.082-39.52,45.231
				c-0.166,0.395-0.333,0.812-0.281,1.237c0.071,0.583,0.529,1.032,0.96,1.432C111.625,405.935,113.469,407.641,115.314,409.348z"/>
		</g>
	</g>
	<g>
		<g>
			<g>
				<g>
					<g>
						<circle fill="#FFFFFF" cx="195.161" cy="206.926" r="91.281"/>
					</g>
				</g>
				<g opacity="0.08">
					<g>
						<path d="M262.282,144.914c4.895,16.127,5.385,33.797,0.468,51.221c-13.69,48.519-64.121,76.752-112.64,63.062
							c-16.851-4.755-31.251-13.944-42.302-25.943c8.735,28.781,31.498,52.646,62.593,61.42
							c48.519,13.69,98.949-14.543,112.64-63.062C291.978,199.943,283.049,167.464,262.282,144.914z"/>
					</g>
				</g>
				<g>
					<g>
						<path opacity="0.2" fill="#FFFFFF" d="M116.636,194.773c12.711-45.046,59.533-71.26,104.579-58.549
							c26.331,7.43,46.221,26.517,55.67,50.088c-7.185-28.425-28.938-52.335-59.182-60.869
							c-45.046-12.711-91.869,13.502-104.58,58.549c-5.281,18.717-3.837,37.736,2.879,54.492
							C112.485,224.571,112.458,209.577,116.636,194.773z"/>
					</g>
				</g>
			</g>
			<g>
				<g>
					<g>
						<g>
							
								<ellipse transform="matrix(0.9624 0.2716 -0.2716 0.9624 54.2737 -39.2131)" fill="#292949" cx="168.81" cy="176.479" rx="6.726" ry="11.337"/>
						</g>
					</g>
					<g>
						<g>
							
								<ellipse transform="matrix(0.9624 0.2716 -0.2716 0.9624 61.6673 -56.1065)" fill="#292949" cx="233.541" cy="194.745" rx="6.726" ry="11.337"/>
						</g>
					</g>
				</g>
			</g>
			<g>
				<path fill="#292949" d="M133.785,198.577c-5.02,30.59,13.624,60.729,44.164,69.346s62.188-7.33,73.899-36.031L133.785,198.577z"
					/>
			</g>
			<g>
				<path fill="#D67086" d="M141.752,240.19c7.803,13.055,20.403,23.276,36.197,27.733c15.114,4.265,30.495,2.505,43.601-3.831
					l-0.185-1.431C187.177,232.146,142.365,240.08,141.752,240.19z"/>
			</g>
		</g>
	</g>
	<g>
		<g>
			<g>
				<g>
					<circle fill="#FFFFFF" cx="629.104" cy="531.32" r="162.68"/>
				</g>
			</g>
			<g opacity="0.08">
				<g>
					<path d="M714.215,392.474c16.201,25.291,25.594,55.362,25.594,87.626c0,89.846-72.833,162.68-162.679,162.68
						c-31.204,0-60.351-8.792-85.112-24.023c28.912,45.136,79.504,75.052,137.085,75.052c89.846,0,162.68-72.834,162.68-162.679
						C791.783,472.486,760.75,421.099,714.215,392.474z"/>
				</g>
			</g>
			<g opacity="0.2">
				<g>
					<path fill="#FFFFFF" d="M488.534,548.483c0-83.416,67.622-151.038,151.038-151.038c48.758,0,92.111,23.11,119.727,58.967
						c-26.081-45.277-74.965-75.759-130.969-75.759c-83.416,0-151.038,67.622-151.038,151.038c0,34.658,11.682,66.583,31.312,92.071
						C495.838,601.601,488.534,575.896,488.534,548.483z"/>
				</g>
			</g>
		</g>
		<g>
			<path fill="#292949" d="M562.424,548.088c-4.19-4.07-10.905,0.432-8.734,5.855c12.02,30.033,41.381,51.25,75.708,51.25
				c33.754,0,62.706-20.515,75.092-49.754c2.259-5.334-4.509-9.951-8.667-5.919C672.014,572.604,621.473,605.449,562.424,548.088z"
				/>
		</g>
		<g>
			<g>
				<g>
					<g>
						<ellipse fill="#292949" cx="569.17" cy="490.654" rx="11.987" ry="20.204"/>
					</g>
				</g>
				<g>
					<g>
						<ellipse fill="#292949" cx="689.037" cy="490.654" rx="11.987" ry="20.204"/>
					</g>
				</g>
			</g>
		</g>
	</g>
	<g>
		<g>
			<g>
				<g>
					<g>
						<circle fill="#FFFFFF" cx="896.627" cy="260.05" r="95.901"/>
					</g>
				</g>
				<g opacity="0.08">
					<g>
						<path d="M942.896,175.928c10.241,14.444,16.606,31.89,17.501,50.89c2.492,52.906-38.376,97.815-91.282,100.307
							c-18.375,0.865-35.782-3.503-50.785-11.786c18.277,25.777,48.898,41.99,82.806,40.393
							c52.906-2.492,93.774-47.401,91.282-100.307C990.791,220.893,971.091,191.494,942.896,175.928z"/>
					</g>
				</g>
				<g>
					<g>
						<path opacity="0.2" fill="#FFFFFF" d="M814.328,274.056c-2.313-49.12,35.631-90.815,84.75-93.129
							c28.712-1.353,54.882,11.054,72.139,31.402c-16.614-25.938-46.245-42.532-79.224-40.979
							c-49.12,2.313-87.063,44.009-84.751,93.129c0.962,20.408,8.727,38.884,20.992,53.348
							C820.103,305.132,815.089,290.197,814.328,274.056z"/>
					</g>
				</g>
			</g>
			<g>
				<g>
					<path fill="#292949" d="M870.953,241.17c-3.03-6.649-9.705-10.723-17.004-10.379c-7.142,0.336-13.357,4.89-15.834,11.599
						c-0.474,1.285,0.012,2.687,1.181,3.409c1.17,0.723,2.643,0.53,3.581-0.47c5.072-5.404,13.28-9.937,23.582-0.831
						c0.582,0.514,1.31,0.757,2.03,0.723c0.55-0.026,1.095-0.213,1.568-0.563C871.152,243.846,871.521,242.412,870.953,241.17z"/>
				</g>
				<g>
					<path fill="#292949" d="M953.255,237.293c-3.03-6.648-9.704-10.723-17.003-10.379c-7.142,0.336-13.357,4.89-15.833,11.598
						c-0.476,1.285,0.009,2.687,1.178,3.409c1.169,0.725,2.644,0.532,3.583-0.469c5.072-5.404,13.279-9.937,23.582-0.831
						c0.581,0.514,1.309,0.757,2.029,0.723c0.551-0.026,1.096-0.213,1.568-0.564C953.455,239.969,953.822,238.535,953.255,237.293z"
						/>
				</g>
			</g>
			<g id="XMLID_66_">
				<path fill="#D67086" d="M854.65,280.127c-0.002-0.051-0.002-0.102-0.004-0.152c-0.45-9.559-7.775-17.986-18.171-17.496
					c-8.26,0.389-12.771,6.551-14.143,12.185l0,0c-1.896-5.48-6.965-11.19-15.226-10.802c-10.395,0.49-16.896,9.568-16.445,19.127
					c0.003,0.051,0.008,0.101,0.012,0.152c0.042,2.083,1.09,23.243,33.886,38.985v0.004l0.005-0.002
					c0.002,0,0.003,0.001,0.003,0.001l0.007-0.002c0.001,0,0.003,0.001,0.003,0.001l0.001-0.004
					C855.748,303.369,854.804,282.204,854.65,280.127z"/>
			</g>
			<g>
				<g>
					<path fill="#292949" d="M899.137,313.325c-8.708,0.41-16.127-6.341-16.537-15.05c-0.179-3.788,0.991-7.441,3.266-10.383
						c-2.541-2.715-4.049-6.243-4.227-10.032c-0.411-8.708,6.341-16.127,15.049-16.538c5.306-0.25,10.353,2.161,13.499,6.449
						c0.886,1.206,0.626,2.902-0.581,3.788c-1.208,0.887-2.903,0.625-3.787-0.582c-2.071-2.82-5.389-4.405-8.875-4.241
						c-5.724,0.27-10.16,5.146-9.892,10.869c0.149,3.159,1.708,6.043,4.276,7.913c0.665,0.484,1.074,1.243,1.113,2.064
						c0.039,0.821-0.298,1.615-0.914,2.159c-2.382,2.103-3.662,5.12-3.514,8.279c0.27,5.724,5.146,10.16,10.869,9.891
						c3.453-0.162,6.59-2.025,8.393-4.983c0.777-1.277,2.446-1.684,3.724-0.904c1.278,0.778,1.683,2.446,0.904,3.724
						C909.164,310.245,904.391,313.078,899.137,313.325z"/>
				</g>
			</g>
		</g>
	</g>
	<g>
		<path fill="#EAC5B0" d="M747.555,508.12c-0.497,1.461-1.156,2.866-1.969,4.179c-0.416,0.674-0.884,1.335-1.519,1.809
			c-0.448,0.334-0.963,0.563-1.474,0.789c-1.207,0.533-2.414,1.067-3.621,1.602c-0.406,0.18-0.846,0.363-1.281,0.278
			c-0.321-0.063-0.595-0.264-0.855-0.461c-1.361-1.031-2.688-2.11-3.977-3.231c-0.211-0.184-0.428-0.379-0.528-0.641
			c-0.204-0.53,0.141-1.104,0.497-1.547c1.785-2.222,1.143-3.049,1.714-5.452c0.386-1.622,1.542-2.42,2.767-3.508
			c2.042-1.814,4.096-3.617,6.144-5.426c0.231-0.204,4.978,3.147,5.552,3.506c-0.752,1.8-0.414,4.054-0.852,5.987
			C747.99,506.719,747.791,507.426,747.555,508.12z"/>
		<path fill="#D67086" d="M750.273,367.715c-0.857,0.801-1.646,1.786-2.338,2.966c-2.874,4.894-3.299,10.952-2.318,16.555
			c1.551,8.872,5.901,17.314,8.443,25.951c2.908,9.88,5.815,19.759,8.723,29.638l-23.481,55.433l11.362,6.388l41.109-61.488
			c-4.497-12.926-8.94-25.54-12.597-38.654c-3.278-11.756-4.392-25.092-12.688-34.617
			C761.805,364.507,754.986,363.314,750.273,367.715z"/>
	</g>
	<g>
		<path fill="#292949" d="M303.645,651.12c-2.093,11.359-3.809,24.31,3.566,33.346c7.108,8.709,19.838,10.28,31.229,11.187
			c19.021,1.516,39.563,2.691,55.721-7.192c11.195-6.849,18.953-18.776,20.522-31.555c0.099-0.809,0.173-1.642-0.055-2.425
			c-0.325-1.115-1.211-1.977-2.064-2.784c-6.863-6.503-13.727-13.007-20.591-19.51c-1.673-1.586-3.376-3.192-5.436-4.265
			c-1.739-0.904-3.669-1.394-5.584-1.854c-18.101-4.354-41.691-10.115-60.408-7.257C304.319,621.289,306.115,637.715,303.645,651.12
			z"/>
		<g>
			<g>
				<g>
					<path fill="#B97262" d="M314.898,566.621c2.555-4.989,1.664-11.03-2.225-15.088c-7.106-7.415-14.211-14.829-21.317-22.244
						c-3.99-4.164-10.059-8.555-12.373-13.701c-4.091-9.097-5.346-20.886-7.35-30.617c-1.017-4.941-3.453-11.496-2.816-16.522
						c0.12-0.942,3.802-9.009,3.59-9.155c-0.017-0.015-1.719-1.416-1.719-1.416l-1.397,1.722l-1.558,0.152l2.523-6.056l-7.075-2.473
						l-6.787,5.418c1.173,5.325,3.75,10.461,3.628,15.983c-0.051,2.335-0.484,4.644-0.734,6.967
						c-0.43,3.989-0.319,8.006-0.374,12.011c-0.054,3.874-0.866,7.75-0.866,11.563c0.001,8.509,0.062,17.018,0.094,25.526
						l34.638,40.5C298.959,576.414,310.576,575.064,314.898,566.621z"/>
				</g>
			</g>
			<path fill="#474EBB" d="M284.343,523.021c0.233-1.11,0.476-2.218,0.725-3.321c4.661-0.203,9.357,0.406,14.054,0.063
				c5.779-0.422,11.461-1.732,17.229-2.294c2.595-0.254,5.202-0.354,7.807-0.456c11.505-0.446,3.653,16.86,2.124,22.905
				c-2.277,9.012-5.056,17.922-8.535,26.545c-1.829,4.532-3.853,8.994-6.188,13.29c-1.187,2.184-3.53,9.192-6.001,9.843
				c-1.992,0.523-3.625-1.531-4.728-3.271c-5.468-8.619-12.785-16.059-21.312-21.668c-0.583-0.383-1.209-0.805-1.439-1.463
				c-0.164-0.473-0.094-0.991-0.022-1.486C279.937,548.764,281.666,535.711,284.343,523.021z"/>
		</g>
		<g>
			<g>
				<g>
					<path fill="#B97262" d="M379.995,562.811c-2.554-4.989-1.663-11.031,2.226-15.089c7.105-7.414,14.211-14.829,21.316-22.243
						c3.99-4.164,10.059-8.555,12.373-13.701c4.092-9.098,5.347-20.886,7.35-30.617c1.017-4.941,3.453-11.496,2.816-16.523
						c-0.12-0.942-3.802-9.008-3.59-9.155c0.017-0.015,1.72-1.415,1.72-1.415l1.396,1.721l1.558,0.153l-2.524-6.056l7.075-2.473
						l6.787,5.418c-1.173,5.325-3.75,10.461-3.629,15.982c0.052,2.336,0.484,4.645,0.734,6.967c0.43,3.99,0.319,8.006,0.375,12.011
						c0.053,3.874,0.866,7.75,0.866,11.563c-0.001,8.508-0.063,17.018-0.095,25.526l-34.638,40.5
						C395.935,572.603,384.318,571.254,379.995,562.811z"/>
				</g>
			</g>
			<path fill="#474EBB" d="M410.552,519.209c-0.234-1.109-0.476-2.217-0.725-3.321c-4.661-0.202-9.357,0.407-14.053,0.063
				c-5.78-0.421-11.461-1.731-17.229-2.294c-2.595-0.253-5.201-0.354-7.807-0.455c-11.504-0.446-3.652,16.859-2.124,22.905
				c2.278,9.012,5.057,17.921,8.536,26.544c1.829,4.532,3.853,8.995,6.188,13.291c1.187,2.183,3.53,9.192,6.002,9.843
				c1.992,0.523,3.624-1.532,4.728-3.271c5.467-8.619,12.784-16.059,21.312-21.668c0.583-0.383,1.209-0.805,1.438-1.464
				c0.165-0.473,0.095-0.99,0.022-1.485C414.957,544.952,413.228,531.9,410.552,519.209z"/>
		</g>
		<g>
			<path fill="#474EBB" d="M337.545,512.058c-9.35,1.771-17.42,5.412-22.802,14.674c-3.857,6.638-5.467,14.409-7.095,21.833
				c-4.253,19.397-6.147,39.173-8.271,58.886c-2.032,18.868-7.436,38.769-1.43,57.379c0.803,2.49,3.095,5.476,5.375,4.192
				c1.183-4.115,2.366-8.231,3.55-12.348c0.509-1.771,1.048-3.598,2.234-5.008c1.029-1.223,2.462-2.025,3.886-2.751
				c7.905-4.027,16.615-6.468,25.462-7.134c9.829-0.742,19.673,0.703,29.188,3.117c9.377,2.379,18.426,6.611,27.873,8.366
				c6.192,1.15,12.328,2.602,18.379,4.349c0.201,0.059,0.416,0.116,0.615,0.053c0.375-0.12,0.491-0.584,0.54-0.974
				c0.526-4.158,0.195-8.423-0.956-12.452c-1.162-4.074-1.086-8.527-1.493-12.772c-0.876-9.124-2.053-18.235-3.934-27.212
				c-4.087-19.508-11.179-38.272-14.626-57.93c-1.49-8.49-2.41-22.564-10.424-29.064c-8.709-7.064-28.369-7.42-39.426-6.177
				C341.919,511.341,339.698,511.649,337.545,512.058z"/>
			<g>
				<g>
					<path fill="#736052" d="M351.892,514.527c-1.829,1.213-6.394,2.146-11.44,0.877c-1.017-0.256-1.79-1.106-1.909-2.148
						c-0.334-2.925-0.471-5.871-0.41-8.814c0.017-0.76-10.379-4.062-11.547-4.907c-6.512-4.718-7.639-13.162-8.004-20.613
						c-0.168-3.425-0.245-7.065,1.491-10.022c1.981-3.374,5.879-5.092,9.636-6.185c6.179-1.798,12.679-2.483,19.097-2.015
						c5.858,0.428,12.222,2.201,15.416,7.131c4.588,7.078,3.424,20.98-0.479,28.065c-2.258,4.098-5.88,5.397-8.758,8.595
						C352.325,507.443,353.109,510.941,351.892,514.527z"/>
					<path fill="#1A1A1A" d="M369.406,459.466c0.909-1.624,1.8-3.206,1.218-4.88c-0.398-1.146-1.424-1.959-1.99-3.032
						c-1.389-2.631,0.286-5.979-0.68-8.794c-1.27-3.7-6.614-5.225-6.979-9.119c-1.408-1.255-3.07,1.16-4.647,2.194
						c-3.58,2.35-7.855-3.134-12.09-2.499c-3.223,0.483-5.347,4.413-8.603,4.264c-2.436-0.111-4.811-2.553-6.963-1.406
						c-0.952,0.507-1.455,1.579-2.291,2.261c-2.666,2.177-7.917-0.003-9.403,3.102c-0.871,1.82-0.501,3.431-2.376,4.653
						c-1.644,1.07-4.892-0.687-5.9,1.656c-0.222,0.514-0.188,1.097-0.149,1.655c0.388,5.652,0.775,11.306,1.163,16.959
						c0.106,1.546,0.244,3.182,1.152,4.437c0.641,0.886,1.631,1.525,2.063,2.53c0.532,1.241,0.067,2.696,0.386,4.008
						c0.519,2.127,7.428,13.045,9.494,9.421c0.741-1.301,0.482-2.916,0.232-4.393c-0.366-2.163-0.632-4.53,0.476-6.424
						c1.75-2.989,5.852-3.293,9.31-3.508c3.223-0.201,6.512-0.651,9.367-2.16c1.979-1.046,4.616-2.507,6.127-0.856
						c0.394,0.43,0.61,1.016,1.07,1.373c0.82,0.638,2.024,0.286,2.916-0.247c0.891-0.533,1.755-1.247,2.792-1.291
						c1.038-0.045,2.138,1.107,1.568,1.976c0.357,1.043,1.857-0.325,2.957-0.255c0.912,0.059,1.32,1.151,1.512,2.045
						c0.575,2.688,1.151,5.375,1.726,8.063c2.206,0.315,4.365-1.279,5.267-3.316c2.343-5.294-1.277-10.366-0.068-15.421
						C368.309,461.427,368.861,460.438,369.406,459.466z"/>
				</g>
			</g>
		</g>
		<g>
			<g>
				<g>
					<g>
						<circle fill="#FFFFFF" cx="342.846" cy="430.002" r="89.255"/>
					</g>
				</g>
				<g opacity="0.08">
					<g>
						<path d="M385.723,351.608c9.563,13.42,15.526,29.644,16.4,47.324c2.436,49.234-35.502,91.121-84.735,93.557
							c-17.1,0.846-33.31-3.182-47.292-10.857c17.067,23.95,45.602,38.973,77.156,37.411c49.233-2.436,87.171-44.322,84.735-93.557
							C430.397,393.352,411.999,366.033,385.723,351.608z"/>
					</g>
				</g>
				<g>
					<g>
						<path opacity="0.2" fill="#FFFFFF" d="M266.282,443.219c-2.262-45.711,32.961-84.601,78.672-86.862
							c26.718-1.322,51.102,10.167,67.207,29.067c-15.52-24.104-43.134-39.482-73.823-37.964
							c-45.711,2.261-80.934,41.15-78.672,86.861c0.939,18.992,8.207,36.17,19.654,49.604
							C271.725,472.128,267.025,458.239,266.282,443.219z"/>
					</g>
				</g>
			</g>
			<g>
				<path fill="#292949" d="M306.761,440.998c-2.406-2.117-5.964,0.533-4.627,3.445c7.401,16.133,24.065,26.963,42.876,26.032
					c18.497-0.915,33.806-12.941,39.8-29.3c1.094-2.984-2.74-5.331-4.91-3.009C367.48,451.462,340.674,470.83,306.761,440.998z"/>
			</g>
			<g>
				<g>
					<path fill="#292949" d="M364.696,405.345c2.211-6.431,8.03-10.804,14.821-11.14c6.646-0.329,12.813,3.332,15.708,9.324
						c0.554,1.148,0.23,2.49-0.788,3.265c-1.02,0.774-2.401,0.728-3.36-0.114c-5.183-4.552-13.193-8.014-21.92,1.345
						c-0.493,0.528-1.146,0.819-1.816,0.853c-0.512,0.025-1.033-0.1-1.503-0.382C364.752,407.842,364.282,406.546,364.696,405.345z"
						/>
				</g>
				<g>
					<path fill="#292949" d="M288.107,409.134c2.211-6.431,8.029-10.804,14.82-11.14c6.646-0.329,12.813,3.332,15.708,9.324
						c0.556,1.147,0.232,2.489-0.786,3.264c-1.018,0.776-2.401,0.729-3.361-0.113c-5.183-4.552-13.192-8.014-21.92,1.346
						c-0.493,0.527-1.145,0.818-1.815,0.852c-0.512,0.025-1.033-0.1-1.504-0.383C288.162,411.631,287.693,410.335,288.107,409.134z"
						/>
				</g>
			</g>
			<g>
				<circle fill="#D67086" cx="277.919" cy="445.653" r="15.584"/>
			</g>
			<g>
				<circle fill="#D67086" cx="409.002" cy="439.168" r="15.583"/>
			</g>
		</g>
		<g>
			<g>
				<path fill="#B97262" d="M335.303,709.818c-2.573,0.561-5.088,0.002-7.648,0.094c-1.207-8.916-1.515-17.593-0.907-26.664
					c4.566,3.765,7.488,0.745,8.573,8.937C335.671,694.836,334.193,705.869,335.303,709.818z"/>
				<path fill="#292949" d="M326.425,705.57c-3.114-0.616-2.728,6.541-2.503,8.205c0.135,0.999,0.405,1.998,0.295,3.001
					c-0.12,1.104-0.688,2.101-1.243,3.062c-1.163,2.012-2.326,4.024-3.488,6.037c-0.523,0.904-1.054,1.83-1.254,2.855
					c-0.495,2.543,1.344,5.195,3.803,6.01c8.53,2.825,14.331-7.959,15.094-14.621c0.117-1.021,0.161-2.049,0.204-3.076
					c0.089-2.125,0.981-6.86-0.139-8.756c-1.308-2.212-3.95-0.074-5.98-0.679C329.328,707.048,327.686,705.822,326.425,705.57z"/>
			</g>
			<path fill="#292949" d="M347.583,582.394c0.759,0.848,1.461,1.743,2.099,2.667c5.102,7.398,6.907,16.672,6.708,25.657
				c-0.199,8.984-2.266,17.811-4.321,26.56c-2.481,10.558-5.678,21.092-6.202,31.838c-0.278,5.711-1.232,11.448-1.866,17.128
				c-0.566,5.067-1.182,10.14-1.557,15.226c-0.132,1.794-0.426,1.894-2.329,2.188c-2.34,0.361-4.71,0.522-7.077,0.48
				c-4.64-0.082-9.267-0.937-13.62-2.546c-3.103-1.147-2.172-7.11-2.44-9.802c-0.781-7.827-1.383-15.672-1.968-23.515
				c-1.169-15.673-2.608-31.336-3.068-47.052c-0.398-13.599-2.566-26.987,6.973-38.104c3.588-4.182,8.543-7.56,14.048-7.797
				C338.568,575.082,343.787,578.154,347.583,582.394z"/>
		</g>
		<g>
			<g>
				<path fill="#B97262" d="M371.975,705.537c2.66,0.447,5.205-0.248,7.83-0.279c0.797-9.181,0.686-18.072-0.381-27.323
					c-4.486,4.076-7.624,1.13-8.331,9.563C370.863,690.228,372.916,701.443,371.975,705.537z"/>
				<path fill="#292949" d="M380.849,700.757c3.155-0.784,3.111,6.558,2.963,8.27c-0.089,1.029-0.315,2.065-0.154,3.085
					c0.177,1.123,0.807,2.115,1.422,3.071c1.289,2.001,2.577,4.003,3.865,6.005c0.579,0.899,1.168,1.821,1.422,2.86
					c0.631,2.576-1.12,5.381-3.595,6.335c-8.589,3.309-15.051-7.439-16.159-14.219c-0.169-1.038-0.264-2.088-0.358-3.137
					c-0.196-2.169-1.341-6.971-0.287-8.964c1.229-2.327,4.038-0.27,6.085-0.987C377.951,702.41,379.572,701.075,380.849,700.757z"/>
			</g>
			<path fill="#292949" d="M355.724,582.551c-0.698,0.858-1.337,1.76-1.913,2.686c-4.608,7.42-5.929,16.506-5.318,25.219
				c0.612,8.712,3.028,17.184,5.431,25.58c2.9,10.133,6.493,20.21,7.501,30.617c0.265,2.725,5.519,33.244,4.946,33.271
				c3.691-0.178,7.359,0.833,11.085,0.425c4.021-0.44,8.043-0.703,12.051-1.294c-0.098-2.179,0.649-3.634,0.895-5.688
				c0.24-2.007,0.019-4.034,0.122-6.048c0.394-7.633,0.613-15.276,0.816-22.917c0.405-15.269,1.073-30.54,0.788-45.816
				c-0.247-13.219,1.235-26.317-8.542-36.664c-3.677-3.893-8.645-6.941-14-6.915C364.134,575.033,359.212,578.259,355.724,582.551z"
				/>
		</g>
	</g>
</g>
</svg>
