<svg height="431pt" viewBox="0 -30 431.84566 431" width="431pt" xmlns="http://www.w3.org/2000/svg" xmlns:xlink="http://www.w3.org/1999/xlink"><linearGradient id="a" gradientUnits="userSpaceOnUse" x1="86.340019" x2="362.180019" y1="333.913601" y2="58.081601"><stop offset="0" stop-color="#41dfd0"/><stop offset="1" stop-color="#ee83ef"/></linearGradient><path d="m367.851562 108.511719v-.09375c0-48.449219-32.265624-90.964844-78.925781-104.007813-46.660156-13.042968-96.292969 6.582032-121.417969 48.007813h-7.65625c-34.203124-.074219-65.324218 19.75-79.71875 50.777343-51.355468 12.105469-85.503906 60.75-79.445312 113.164063 6.058594 52.410156 50.402344 91.984375 103.164062 92.058594h64v56c0 4.417969 3.582032 8 8 8h80c4.417969 0 8-3.582031 8-8v-56h64c49.5625.023437 92.25-34.949219 101.972657-83.550781 9.726562-48.597657-16.214844-97.304688-61.972657-116.355469zm-120 127.90625v120h-64v-120c0-4.417969-3.582031-8-8-8h-23.75l63.75-82.878907 63.753907 82.878907h-23.753907c-4.417968 0-8 3.582031-8 8zm80 56h-64v-48h32c3.046876 0 5.828126-1.730469 7.175782-4.464844 1.347656-2.730469 1.023437-5.992187-.832032-8.40625l-80-104c-1.574218-1.878906-3.894531-2.960937-6.34375-2.960937-2.449218 0-4.769531 1.082031-6.34375 2.960937l-80 104c-1.855468 2.414063-2.175781 5.675781-.832031 8.40625 1.347657 2.734375 4.128907 4.464844 7.175781 4.464844h32v48h-64c-45.320312-.082031-83.167968-34.570313-87.445312-79.691407-4.28125-45.117187 26.40625-86.105468 70.902344-94.707031 2.652344-.5 4.878906-2.304687 5.910156-4.800781 10.996094-27.128906 37.363281-44.855469 66.632812-44.800781h12.273438c2.921875 0 5.613281-1.597657 7.015625-4.160157 20.171875-36.878906 62.777344-55.390624 103.5-44.980468 40.726563 10.414062 69.214844 47.105468 69.210937 89.140625v5.601562c0 3.386719 2.132813 6.410157 5.328126 7.542969 40.382812 14.28125 64.601562 55.574219 57.355468 97.789062-7.246094 42.214844-43.851562 73.070313-86.683594 73.066407zm-40-32h16v16h-16zm32 0h16v16h-16zm-216 0h16v16h-16zm-32 0h16v16h-16zm80 16h-16v-16h16zm0 0" fill="url(#a)"/></svg>